<?xml version="1.0" encoding="UTF-8" standalone="no"?>
<svg
    width="1024"
    height="1024"
    viewBox="0 0 270.93333 270.93333"
    version="1.1"
    xmlns="http://www.w3.org/2000/svg">
    <g id="layer1">
        <ellipse
            style="fill:#f9f9f9;fill-opacity:1;stroke:none;stroke-width:0.29962;stroke-linecap:round;stroke-linejoin:round"
            cx="134.71085"
            cy="104.18708"
            rx="91.987801"
            ry="91.513634" />
        <path
            style="fill:#028ade;stroke-width:2.58293"
            d="m 131.84454,265.03366 c -3.70109,-1.37027 -5.51766,-3.17773 -15.0709,-14.99542 -16.42673,-20.32039 -21.128889,-26.46793 -36.281652,-47.43406 -23.288467,-32.22311 -35.623248,-53.21124 -40.90411,-69.6 -3.067183,-9.51875 -4.429621,-18.37271 -4.421802,-28.73556 0.01188,-15.596754 3.151369,-28.951886 10.168881,-43.256058 5.07906,-10.352917 10.690264,-18.165048 19.048628,-26.520211 8.044762,-8.041687 15.282077,-13.201639 25.672547,-18.303636 10.414678,-5.113878 19.851008,-8.0528185 31.067938,-9.6760856 13.4732,-1.9497859 26.44476,-1.3065376 39.251,1.9464204 14.65941,3.7236892 27.41713,10.1707842 39.66711,20.0456782 3.06297,2.469118 9.66659,9.023087 12.61328,12.518456 18.66515,22.14062 26.85599,53.001143 21.49816,80.998546 -1.85922,9.71552 -4.4787,17.31593 -9.32129,27.04573 -6.91396,13.89173 -19.542,33.53297 -35.84733,55.75585 -2.51864,3.43274 -5.94823,8.11371 -7.62127,10.40222 -9.3692,12.81558 -16.33328,21.77123 -28.36632,36.47834 -7.48846,9.15262 -9.70568,11.42555 -12.47569,12.78923 -1.6677,0.82099 -2.17597,0.93392 -4.5353,1.00745 -2.11276,0.0659 -2.96128,-0.0297 -4.14188,-0.46689 z m 12.57077,-81.71246 c 14.37697,-1.68175 27.51947,-7.01741 38.93265,-15.80607 3.73283,-2.87445 10.47459,-9.45966 13.20648,-12.89981 7.74232,-9.74957 13.34201,-21.54832 15.83849,-33.37237 2.0611,-9.76183 2.06121,-21.609486 2.9e-4,-31.557043 C 209.93165,77.80441 204.26566,65.812064 196.54437,56.141062 194.20906,53.216064 187.88447,46.862616 184.93796,44.48171 178.82413,39.541469 169.8828,34.520153 162.45552,31.8559 148.41043,26.817769 132.80273,25.79492 118.4067,28.969168 107.67314,31.33586 96.578096,36.497685 87.62418,43.290337 83.683289,46.279991 75.879809,54.14244 72.942658,58.082807 64.57732,69.305416 59.76355,80.709377 57.545181,94.55989 c -0.70627,4.409626 -0.706905,17.52822 -0.0011,22.05269 2.66772,17.10028 10.654377,32.52072 23.150392,44.69821 11.113563,10.83026 25.177587,18.2315 39.999497,21.04989 7.29897,1.38789 16.78443,1.77197 23.72131,0.96052 z" />
        <path
            style="fill:#fe9123;stroke-width:0.105187;stroke-linecap:round;stroke-linejoin:round;fill-opacity:1"
            d="m 132.96088,39.323698 c -35.261131,1.344848 -63.17349,30.283975 -63.244205,65.570672 0.07044,35.2869 27.982874,64.22633 63.244205,65.57119 z" />
        <path
            style="fill:#fd771d;stroke-width:0.105187;stroke-linecap:round;stroke-linejoin:round;fill-opacity:1"
            d="M 137.97246,39.205876 V 170.46556 c 35.26133,-1.34486 63.17376,-30.28429 63.2442,-65.57119 -0.007,-35.332362 -27.93751,-64.341836 -63.2442,-65.688494 z" />
    </g>
</svg>
